<?xml version="1.0" encoding="UTF-8" standalone="no"?>
<!DOCTYPE svg PUBLIC "-//W3C//DTD SVG 1.1//EN"
 "http://www.w3.org/Graphics/SVG/1.1/DTD/svg11.dtd">
<!-- Generated by graphviz version 2.40.1 (20161225.0304)
 -->
<!-- Title: %3 Pages: 1 -->
<svg width="144pt" height="188pt"
 viewBox="0.00 0.00 144.14 188.00" xmlns="http://www.w3.org/2000/svg" xmlns:xlink="http://www.w3.org/1999/xlink">
<g id="graph0" class="graph" transform="scale(1 1) rotate(0) translate(4 184)">
<title>%3</title>
<polygon fill="#ffffff" stroke="transparent" points="-4,4 -4,-184 140.1448,-184 140.1448,4 -4,4"/>
<!-- HTML -->
<g id="node1" class="node">
<title>HTML</title>
<ellipse fill="none" stroke="#000000" cx="66.5975" cy="-162" rx="37.8943" ry="18"/>
<text text-anchor="middle" x="66.5975" y="-158.3" font-family="Times,serif" font-size="14.00" fill="#000000">HTML</text>
</g>
<!-- head -->
<g id="node2" class="node">
<title>head</title>
<ellipse fill="none" stroke="#000000" cx="28.5975" cy="-90" rx="28.6953" ry="18"/>
<text text-anchor="middle" x="28.5975" y="-86.3" font-family="Times,serif" font-size="14.00" fill="#000000">head</text>
</g>
<!-- HTML&#45;&gt;head -->
<g id="edge1" class="edge">
<title>HTML&#45;&gt;head</title>
<path fill="none" stroke="#000000" d="M57.2042,-144.2022C52.7206,-135.7071 47.2685,-125.3767 42.3314,-116.0223"/>
<polygon fill="#000000" stroke="#000000" points="45.384,-114.3074 37.621,-107.0972 39.1933,-117.5748 45.384,-114.3074"/>
</g>
<!-- body -->
<g id="node3" class="node">
<title>body</title>
<ellipse fill="none" stroke="#000000" cx="105.5975" cy="-90" rx="30.5947" ry="18"/>
<text text-anchor="middle" x="105.5975" y="-86.3" font-family="Times,serif" font-size="14.00" fill="#000000">body</text>
</g>
<!-- HTML&#45;&gt;body -->
<g id="edge3" class="edge">
<title>HTML&#45;&gt;body</title>
<path fill="none" stroke="#000000" d="M76.0383,-144.5708C80.6371,-136.0807 86.2638,-125.6929 91.3693,-116.2674"/>
<polygon fill="#000000" stroke="#000000" points="94.5582,-117.7286 96.2436,-107.2687 88.4032,-114.3946 94.5582,-117.7286"/>
</g>
<!-- title -->
<g id="node4" class="node">
<title>title</title>
<ellipse fill="none" stroke="#000000" cx="28.5975" cy="-18" rx="27" ry="18"/>
<text text-anchor="middle" x="28.5975" y="-14.3" font-family="Times,serif" font-size="14.00" fill="#000000">title</text>
</g>
<!-- head&#45;&gt;title -->
<g id="edge2" class="edge">
<title>head&#45;&gt;title</title>
<path fill="none" stroke="#000000" d="M28.5975,-71.8314C28.5975,-64.131 28.5975,-54.9743 28.5975,-46.4166"/>
<polygon fill="#000000" stroke="#000000" points="32.0976,-46.4132 28.5975,-36.4133 25.0976,-46.4133 32.0976,-46.4132"/>
</g>
<!-- hello -->
<g id="node5" class="node">
<title>hello</title>
<ellipse fill="none" stroke="#000000" cx="105.5975" cy="-18" rx="29.4969" ry="18"/>
<text text-anchor="middle" x="105.5975" y="-14.3" font-family="Times,serif" font-size="14.00" fill="#000000">hello</text>
</g>
<!-- body&#45;&gt;hello -->
<g id="edge4" class="edge">
<title>body&#45;&gt;hello</title>
<path fill="none" stroke="#000000" d="M105.5975,-71.8314C105.5975,-64.131 105.5975,-54.9743 105.5975,-46.4166"/>
<polygon fill="#000000" stroke="#000000" points="109.0976,-46.4132 105.5975,-36.4133 102.0976,-46.4133 109.0976,-46.4132"/>
</g>
</g>
</svg>
