<?xml version="1.0" encoding="UTF-8" standalone="no"?>
<!DOCTYPE svg PUBLIC "-//W3C//DTD SVG 1.1//EN"
 "http://www.w3.org/Graphics/SVG/1.1/DTD/svg11.dtd">
<!-- Generated by graphviz version 2.40.1 (20161225.0304)
 -->
<!-- Title: %3 Pages: 1 -->
<svg width="189pt" height="188pt"
 viewBox="0.00 0.00 189.49 188.00" xmlns="http://www.w3.org/2000/svg" xmlns:xlink="http://www.w3.org/1999/xlink">
<g id="graph0" class="graph" transform="scale(1 1) rotate(0) translate(4 184)">
<title>%3</title>
<polygon fill="#ffffff" stroke="transparent" points="-4,4 -4,-184 185.4948,-184 185.4948,4 -4,4"/>
<!-- html -->
<g id="node1" class="node">
<title>html</title>
<ellipse fill="none" stroke="#000000" cx="27.9475" cy="-162" rx="27.8951" ry="18"/>
<text text-anchor="middle" x="27.9475" y="-158.3" font-family="Times,serif" font-size="14.00" fill="#000000">html</text>
</g>
<!-- head -->
<g id="node2" class="node">
<title>head</title>
<ellipse fill="none" stroke="#000000" cx="73.9475" cy="-90" rx="28.6953" ry="18"/>
<text text-anchor="middle" x="73.9475" y="-86.3" font-family="Times,serif" font-size="14.00" fill="#000000">head</text>
</g>
<!-- title -->
<g id="node4" class="node">
<title>title</title>
<ellipse fill="none" stroke="#000000" cx="73.9475" cy="-18" rx="27" ry="18"/>
<text text-anchor="middle" x="73.9475" y="-14.3" font-family="Times,serif" font-size="14.00" fill="#000000">title</text>
</g>
<!-- head&#45;&gt;title -->
<g id="edge3" class="edge">
<title>head&#45;&gt;title</title>
<path fill="none" stroke="#000000" d="M73.9475,-71.8314C73.9475,-64.131 73.9475,-54.9743 73.9475,-46.4166"/>
<polygon fill="#000000" stroke="#000000" points="77.4476,-46.4132 73.9475,-36.4133 70.4476,-46.4133 77.4476,-46.4132"/>
</g>
<!-- body -->
<g id="node3" class="node">
<title>body</title>
<ellipse fill="none" stroke="#000000" cx="150.9475" cy="-90" rx="30.5947" ry="18"/>
<text text-anchor="middle" x="150.9475" y="-86.3" font-family="Times,serif" font-size="14.00" fill="#000000">body</text>
</g>
<!-- hello -->
<g id="node5" class="node">
<title>hello</title>
<ellipse fill="none" stroke="#000000" cx="150.9475" cy="-18" rx="29.4969" ry="18"/>
<text text-anchor="middle" x="150.9475" y="-14.3" font-family="Times,serif" font-size="14.00" fill="#000000">hello</text>
</g>
<!-- body&#45;&gt;hello -->
<g id="edge4" class="edge">
<title>body&#45;&gt;hello</title>
<path fill="none" stroke="#000000" d="M150.9475,-71.8314C150.9475,-64.131 150.9475,-54.9743 150.9475,-46.4166"/>
<polygon fill="#000000" stroke="#000000" points="154.4476,-46.4132 150.9475,-36.4133 147.4476,-46.4133 154.4476,-46.4132"/>
</g>
<!-- HTML -->
<g id="node6" class="node">
<title>HTML</title>
<ellipse fill="none" stroke="#000000" cx="111.9475" cy="-162" rx="37.8943" ry="18"/>
<text text-anchor="middle" x="111.9475" y="-158.3" font-family="Times,serif" font-size="14.00" fill="#000000">HTML</text>
</g>
<!-- HTML&#45;&gt;head -->
<g id="edge1" class="edge">
<title>HTML&#45;&gt;head</title>
<path fill="none" stroke="#000000" d="M102.5543,-144.2022C98.0707,-135.7071 92.6186,-125.3767 87.6815,-116.0223"/>
<polygon fill="#000000" stroke="#000000" points="90.734,-114.3074 82.9711,-107.0972 84.5433,-117.5748 90.734,-114.3074"/>
</g>
<!-- HTML&#45;&gt;body -->
<g id="edge2" class="edge">
<title>HTML&#45;&gt;body</title>
<path fill="none" stroke="#000000" d="M121.3883,-144.5708C125.9872,-136.0807 131.6139,-125.6929 136.7193,-116.2674"/>
<polygon fill="#000000" stroke="#000000" points="139.9083,-117.7286 141.5936,-107.2687 133.7532,-114.3946 139.9083,-117.7286"/>
</g>
</g>
</svg>
