<?xml version="1.0" encoding="UTF-8" standalone="no"?>
<!DOCTYPE svg PUBLIC "-//W3C//DTD SVG 1.1//EN"
 "http://www.w3.org/Graphics/SVG/1.1/DTD/svg11.dtd">
<!-- Generated by graphviz version 2.40.1 (20161225.0304)
 -->
<!-- Title: %3 Pages: 1 -->
<svg width="144pt" height="188pt"
 viewBox="0.00 0.00 144.14 188.00" xmlns="http://www.w3.org/2000/svg" xmlns:xlink="http://www.w3.org/1999/xlink">
<g id="graph0" class="graph" transform="scale(1 1) rotate(0) translate(4 184)">
<title>%3</title>
<polygon fill="#ffffff" stroke="transparent" points="-4,4 -4,-184 140.1448,-184 140.1448,4 -4,4"/>
<!-- html -->
<g id="node1" class="node">
<title>html</title>
<ellipse fill="none" stroke="#000000" cx="66.5975" cy="-162" rx="27.8951" ry="18"/>
<text text-anchor="middle" x="66.5975" y="-158.3" font-family="Times,serif" font-size="14.00" fill="#000000">html</text>
</g>
<!-- head -->
<g id="node2" class="node">
<title>head</title>
<ellipse fill="none" stroke="#000000" cx="28.5975" cy="-90" rx="28.6953" ry="18"/>
<text text-anchor="middle" x="28.5975" y="-86.3" font-family="Times,serif" font-size="14.00" fill="#000000">head</text>
</g>
<!-- html&#45;&gt;head -->
<g id="edge1" class="edge">
<title>html&#45;&gt;head</title>
<path fill="none" stroke="#000000" d="M57.592,-144.937C53.1147,-136.4537 47.6023,-126.0092 42.5904,-116.513"/>
<polygon fill="#000000" stroke="#000000" points="45.5653,-114.6509 37.8023,-107.4407 39.3746,-117.9182 45.5653,-114.6509"/>
</g>
<!-- body -->
<g id="node3" class="node">
<title>body</title>
<ellipse fill="none" stroke="#000000" cx="105.5975" cy="-90" rx="30.5947" ry="18"/>
<text text-anchor="middle" x="105.5975" y="-86.3" font-family="Times,serif" font-size="14.00" fill="#000000">body</text>
</g>
<!-- html&#45;&gt;body -->
<g id="edge2" class="edge">
<title>html&#45;&gt;body</title>
<path fill="none" stroke="#000000" d="M75.8399,-144.937C80.435,-136.4537 86.0925,-126.0092 91.2363,-116.513"/>
<polygon fill="#000000" stroke="#000000" points="94.4651,-117.9006 96.1504,-107.4407 88.31,-114.5666 94.4651,-117.9006"/>
</g>
<!-- title -->
<g id="node4" class="node">
<title>title</title>
<ellipse fill="none" stroke="#000000" cx="28.5975" cy="-18" rx="27" ry="18"/>
<text text-anchor="middle" x="28.5975" y="-14.3" font-family="Times,serif" font-size="14.00" fill="#000000">title</text>
</g>
<!-- head&#45;&gt;title -->
<g id="edge3" class="edge">
<title>head&#45;&gt;title</title>
<path fill="none" stroke="#000000" d="M28.5975,-71.8314C28.5975,-64.131 28.5975,-54.9743 28.5975,-46.4166"/>
<polygon fill="#000000" stroke="#000000" points="32.0976,-46.4132 28.5975,-36.4133 25.0976,-46.4133 32.0976,-46.4132"/>
</g>
<!-- hello -->
<g id="node5" class="node">
<title>hello</title>
<ellipse fill="none" stroke="#000000" cx="105.5975" cy="-18" rx="29.4969" ry="18"/>
<text text-anchor="middle" x="105.5975" y="-14.3" font-family="Times,serif" font-size="14.00" fill="#000000">hello</text>
</g>
<!-- body&#45;&gt;hello -->
<g id="edge4" class="edge">
<title>body&#45;&gt;hello</title>
<path fill="none" stroke="#000000" d="M105.5975,-71.8314C105.5975,-64.131 105.5975,-54.9743 105.5975,-46.4166"/>
<polygon fill="#000000" stroke="#000000" points="109.0976,-46.4132 105.5975,-36.4133 102.0976,-46.4133 109.0976,-46.4132"/>
</g>
</g>
</svg>
