<?xml version="1.0" encoding="UTF-8" standalone="no"?>
<!DOCTYPE svg PUBLIC "-//W3C//DTD SVG 1.1//EN"
 "http://www.w3.org/Graphics/SVG/1.1/DTD/svg11.dtd">
<!-- Generated by graphviz version 2.40.1 (20161225.0304)
 -->
<!-- Title: %3 Pages: 1 -->
<svg width="146pt" height="260pt"
 viewBox="0.00 0.00 145.60 260.00" xmlns="http://www.w3.org/2000/svg" xmlns:xlink="http://www.w3.org/1999/xlink">
<g id="graph0" class="graph" transform="scale(1 1) rotate(0) translate(4 256)">
<title>%3</title>
<polygon fill="#ffffff" stroke="transparent" points="-4,4 -4,-256 141.5975,-256 141.5975,4 -4,4"/>
<!-- Hello, World! -->
<g id="node1" class="node">
<title>Hello, World!</title>
<polygon fill="none" stroke="#000000" points="137.5975,-36 73.5975,-36 73.5975,0 137.5975,0 137.5975,-36"/>
<text text-anchor="middle" x="105.5975" y="-16.1" font-family="Times,serif" font-size="8.00" fill="#000000">Hello, World!</text>
</g>
<!-- html -->
<g id="node2" class="node">
<title>html</title>
<ellipse fill="none" stroke="#000000" cx="66.5975" cy="-234" rx="27.8951" ry="18"/>
<text text-anchor="middle" x="66.5975" y="-230.3" font-family="Times,serif" font-size="14.00" fill="#000000">html</text>
</g>
<!-- head -->
<g id="node3" class="node">
<title>head</title>
<ellipse fill="none" stroke="#000000" cx="28.5975" cy="-162" rx="28.6953" ry="18"/>
<text text-anchor="middle" x="28.5975" y="-158.3" font-family="Times,serif" font-size="14.00" fill="#000000">head</text>
</g>
<!-- html&#45;&gt;head -->
<g id="edge1" class="edge">
<title>html&#45;&gt;head</title>
<path fill="none" stroke="#000000" d="M57.592,-216.937C53.1147,-208.4537 47.6023,-198.0092 42.5904,-188.513"/>
<polygon fill="#000000" stroke="#000000" points="45.5653,-186.6509 37.8023,-179.4407 39.3746,-189.9182 45.5653,-186.6509"/>
</g>
<!-- body -->
<g id="node4" class="node">
<title>body</title>
<ellipse fill="none" stroke="#000000" cx="105.5975" cy="-162" rx="30.5947" ry="18"/>
<text text-anchor="middle" x="105.5975" y="-158.3" font-family="Times,serif" font-size="14.00" fill="#000000">body</text>
</g>
<!-- html&#45;&gt;body -->
<g id="edge2" class="edge">
<title>html&#45;&gt;body</title>
<path fill="none" stroke="#000000" d="M75.8399,-216.937C80.435,-208.4537 86.0925,-198.0092 91.2363,-188.513"/>
<polygon fill="#000000" stroke="#000000" points="94.4651,-189.9006 96.1504,-179.4407 88.31,-186.5666 94.4651,-189.9006"/>
</g>
<!-- title -->
<g id="node5" class="node">
<title>title</title>
<ellipse fill="none" stroke="#000000" cx="28.5975" cy="-90" rx="27" ry="18"/>
<text text-anchor="middle" x="28.5975" y="-86.3" font-family="Times,serif" font-size="14.00" fill="#000000">title</text>
</g>
<!-- head&#45;&gt;title -->
<g id="edge3" class="edge">
<title>head&#45;&gt;title</title>
<path fill="none" stroke="#000000" d="M28.5975,-143.8314C28.5975,-136.131 28.5975,-126.9743 28.5975,-118.4166"/>
<polygon fill="#000000" stroke="#000000" points="32.0976,-118.4132 28.5975,-108.4133 25.0976,-118.4133 32.0976,-118.4132"/>
</g>
<!-- p -->
<g id="node6" class="node">
<title>p</title>
<ellipse fill="none" stroke="#000000" cx="105.5975" cy="-90" rx="27" ry="18"/>
<text text-anchor="middle" x="105.5975" y="-86.3" font-family="Times,serif" font-size="14.00" fill="#000000">p</text>
</g>
<!-- body&#45;&gt;p -->
<g id="edge4" class="edge">
<title>body&#45;&gt;p</title>
<path fill="none" stroke="#000000" d="M105.5975,-143.8314C105.5975,-136.131 105.5975,-126.9743 105.5975,-118.4166"/>
<polygon fill="#000000" stroke="#000000" points="109.0976,-118.4132 105.5975,-108.4133 102.0976,-118.4133 109.0976,-118.4132"/>
</g>
<!-- p&#45;&gt;Hello, World! -->
<g id="edge5" class="edge">
<title>p&#45;&gt;Hello, World!</title>
<path fill="none" stroke="#000000" d="M105.5975,-71.8314C105.5975,-64.131 105.5975,-54.9743 105.5975,-46.4166"/>
<polygon fill="#000000" stroke="#000000" points="109.0976,-46.4132 105.5975,-36.4133 102.0976,-46.4133 109.0976,-46.4132"/>
</g>
</g>
</svg>
