<?xml version="1.0" encoding="UTF-8" standalone="no"?>
<!DOCTYPE svg PUBLIC "-//W3C//DTD SVG 1.1//EN"
 "http://www.w3.org/Graphics/SVG/1.1/DTD/svg11.dtd">
<!-- Generated by graphviz version 2.40.1 (20161225.0304)
 -->
<!-- Title: %3 Pages: 1 -->
<svg width="144pt" height="116pt"
 viewBox="0.00 0.00 144.14 116.00" xmlns="http://www.w3.org/2000/svg" xmlns:xlink="http://www.w3.org/1999/xlink">
<g id="graph0" class="graph" transform="scale(1 1) rotate(0) translate(4 112)">
<title>%3</title>
<polygon fill="#ffffff" stroke="transparent" points="-4,4 -4,-112 140.1448,-112 140.1448,4 -4,4"/>
<!-- HTML -->
<g id="node1" class="node">
<title>HTML</title>
<ellipse fill="none" stroke="#000000" cx="66.5975" cy="-90" rx="27.8951" ry="18"/>
<text text-anchor="middle" x="66.5975" y="-86.3" font-family="Times,serif" font-size="14.00" fill="#000000">html</text>
</g>
<!-- head -->
<g id="node2" class="node">
<title>head</title>
<ellipse fill="none" stroke="#000000" cx="28.5975" cy="-18" rx="28.6953" ry="18"/>
<text text-anchor="middle" x="28.5975" y="-14.3" font-family="Times,serif" font-size="14.00" fill="#000000">head</text>
</g>
<!-- HTML&#45;&gt;head -->
<g id="edge1" class="edge">
<title>HTML&#45;&gt;head</title>
<path fill="none" stroke="#000000" d="M57.592,-72.937C53.1147,-64.4537 47.6023,-54.0092 42.5904,-44.513"/>
<polygon fill="#000000" stroke="#000000" points="45.5653,-42.6509 37.8023,-35.4407 39.3746,-45.9182 45.5653,-42.6509"/>
</g>
<!-- body -->
<g id="node3" class="node">
<title>body</title>
<ellipse fill="none" stroke="#000000" cx="105.5975" cy="-18" rx="30.5947" ry="18"/>
<text text-anchor="middle" x="105.5975" y="-14.3" font-family="Times,serif" font-size="14.00" fill="#000000">body</text>
</g>
<!-- HTML&#45;&gt;body -->
<g id="edge2" class="edge">
<title>HTML&#45;&gt;body</title>
<path fill="none" stroke="#000000" d="M75.8399,-72.937C80.435,-64.4537 86.0925,-54.0092 91.2363,-44.513"/>
<polygon fill="#000000" stroke="#000000" points="94.4651,-45.9006 96.1504,-35.4407 88.31,-42.5666 94.4651,-45.9006"/>
</g>
</g>
</svg>
